<?xml version="1.0" encoding="UTF-8"?>
<svg version="1.1" viewBox="0 0 1029 1029" xmlns="http://www.w3.org/2000/svg">
<path d="m537.19 945.9c-14.302-0.30908-26.55-0.90038-27.22-1.314-0.6693-0.41362-4.943-1.1766-9.4971-1.6954-4.5541-0.51885-11.205-1.6228-14.78-2.4531-18.747-4.3544-41.538-9.9098-49.54-12.076-4.9723-1.3458-9.794-2.447-10.715-2.447-0.921 0-3.7478-0.70388-6.2818-1.5642-2.534-0.8603-7.0734-1.9656-10.088-2.4561-9.908-1.6126-45.516-12.02-64.875-18.962-10.45-3.7471-22.375-7.9312-26.5-9.2982s-11.609-4.3381-16.632-6.6026c-5.0226-2.2645-9.4101-4.1173-9.75-4.1173-2.5221 0-37.281-18.375-46.118-24.38-6.05-4.1111-13.486-8.8662-16.525-10.567-3.0389-1.7007-8.6639-5.5454-12.5-8.5438-3.8361-2.9984-9.8997-7.4279-13.475-9.8433-10.968-7.4106-68.866-68.241-81.5-85.627-11.382-15.664-30.5-43.479-30.5-44.375 0-0.28642-1.5902-3.1903-3.5339-6.4531-7.1422-11.99-12.627-26.562-26.616-70.711-2.7883-8.8-5.91-18.475-6.9372-21.5-1.0272-3.025-2.5484-10.675-3.3805-17s-1.9747-14.425-2.5392-18c-2.9746-18.838-3.326-25.562-3.3448-64-0.0189-38.589 1.0428-63.529 3.4056-80 1.8078-12.603 9.802-50.552 11.761-55.832 0.54459-1.4676 1.9964-6.0434 3.2263-10.168 1.2299-4.125 4.6487-12.946 7.5974-19.603 2.9487-6.6567 5.3612-12.853 5.3612-13.77 0-2.8016 4.5075-12.817 8.3835-18.627 2.0179-3.025 4.1864-7.214 4.8187-9.309 0.63235-2.0949 1.9218-4.2222 2.8654-4.7272 1.6298-0.87222 5.0255-5.9751 9.4324-14.174 2.8977-5.3914 11.281-18.32 16.495-25.44 2.4776-3.3829 6.5094-8.8826 8.9595-12.222s4.9444-6.2587 5.5429-6.4883c0.59844-0.22965 3.0938-3.0461 5.5452-6.2588 6.1472-8.0561 58.589-60.492 63.77-63.762 2.3147-1.4612 6.5662-4.7918 9.4477-7.4013 2.8816-2.6095 7.0392-5.8371 9.2392-7.1724s6.7-4.7266 10-7.5363c11.273-9.5982 41.844-26.166 65.5-35.497 5.775-2.278 14.177-5.6868 18.67-7.575 12.123-5.0939 27.372-10.218 40.33-13.552 6.325-1.6272 12.85-3.3801 14.5-3.8953 4.5271-1.4136 31.849-6.0424 41.5-7.0308 4.675-0.4788 12.55-1.2866 17.5-1.7951 13.112-1.347 84.297-1.4279 101.38-0.11523 18.685 1.436 56.029 7.7645 76.622 12.985 8.8 2.2307 18.475 4.6607 21.5 5.4 8.1521 1.9922 32.547 8.444 40 10.579 3.575 1.0241 10.1 2.8283 14.5 4.0093 4.4 1.181 11.375 3.2307 15.5 4.5548 4.125 1.3241 10.2 3.1092 13.5 3.9668 18.634 4.8427 51.961 20.673 72.074 34.233 0.5907 0.39828 3.8456 2.5242 7.233 4.7242 3.3875 2.2 8.7542 5.6898 11.926 7.755 8.1784 5.3252 16.191 11.304 20.267 15.122 1.925 1.8034 5.975 5.0075 9 7.1203 21.725 15.174 71.226 63.929 84.272 83.002 1.5048 2.2 4.7689 6.475 7.2536 9.5 4.6986 5.7204 20.83 30.628 28.82 44.5 4.732 8.2152 12.449 25.741 15.632 35.5 0.9865 3.025 3.9085 10.9 6.4933 17.5 20.892 53.344 28.09 106.98 24.964 186-0.4718 11.926-2.1842 24.371-4.976 36.164-0.8026 3.3903-1.4593 7.4132-1.4593 8.9398 0 4.0878-1.8762 13.977-4.0729 21.467-1.0599 3.614-1.9271 7.5376-1.9271 8.7191 0 2.8673-4.1386 15.506-8.9098 27.21-2.13 5.225-5.0888 13.325-6.575 18-3.6438 11.462-21.356 46.747-31.015 61.786-24.712 38.476-29.622 45.364-44.334 62.197-7.206 8.2448-37.542 38.316-42.166 41.798-1.925 1.4495-6.0193 4.9042-9.0986 7.6771-7.4721 6.7289-12.477 10.644-17.901 14.003-2.475 1.5326-5.625 3.9822-7 5.4434-1.375 1.4612-7.9 5.9938-14.5 10.072s-13.655 8.6896-15.678 10.246-8.5479 5.1394-14.5 7.9613-12.024 5.9651-13.493 6.985c-7.249 5.0322-35.26 16.211-52.322 20.881-6.0539 1.6569-13.381 3.9554-16.283 5.1078-2.9017 1.1524-8.0767 2.6831-11.5 3.4016-3.4232 0.71848-9.5991 2.188-13.724 3.2656-11.341 2.9626-18.677 4.3589-27.5 5.2342-4.4 0.43649-11.375 1.3051-15.5 1.9302-8.747 1.3256-50.341 1.7989-87.503 0.99578zm71.765-6.474c81.098-7.1542 147.94-32.045 210.55-78.407 17.606-13.037 29.968-23.866 49.198-43.095 18.142-18.142 29.753-31.258 41.17-46.509 26.226-35.03 45.349-71.008 59.25-111.47 30.95-90.092 29.5-201.45-3.7627-289.03-21.873-57.59-53.49-104.97-101.83-152.58-33.489-32.989-63.445-55.236-100.34-74.517-36.079-18.855-59.825-26.723-158-52.352-59.239-15.465-71.27-17.049-129-16.987-54.944 0.05898-73.596 2.0356-113.63 12.042-67.503 16.871-124.45 47.878-178.37 97.111-72.215 65.947-114.66 143.01-130.41 236.78-3.3384 19.872-4.3879 37.241-4.4711 74-0.083 36.644 0.62609 46.378 5.4632 75 13.987 82.761 49.79 151.83 111.91 215.87 44.464 45.844 93.795 79.389 148.51 100.99 17.21 6.793 20.075 7.5829 19.196 5.2917-0.42417-1.1054-0.10998-1.6497 0.95221-1.6497 1.0656 0 1.4222 0.62338 1.0879 1.9017-0.41756 1.5967 0.47741 2.1752 5.5807 3.6071 3.3429 0.93797 6.6826 1.9374 7.4216 2.221 0.73896 0.28356 1.2127 0.12287 1.0527-0.35711-0.15999-0.47997 0.15911-0.98518 0.70911-1.1227s1 0.3125 1 1c0 0.91203 5.53 3.4497 8.1389 3.7348 0.0764 8e-3 0.0764-0.72389 0-1.6272-0.0764-0.90331 0.42503-1.8413 1.1143-2.0844 0.80569-0.28418 1.1628 0.36601 1 1.8209-0.29286 2.6178-2.201 1.9344 30.747 11.011 71.762 19.769 105.56 26.912 141 29.8 17.104 1.3936 56.873 1.184 74.762-0.39405zm-72.012-1.217c-4.0974-0.78919-2.3372-2.0261 3.8851-2.73 3.9223-0.44376 6.5191-0.31001 7.2 0.37083 0.7532 0.75325 0.6405 1.0694-0.3851 1.0802-1.2332 0.013-1.2257 0.16026 0.05 0.98469 1.5472 0.99984-6.0124 1.2068-10.75 0.29427zm56.153-0.13693c0.4248-0.68742 0.082-1.1573-0.8438-1.1573-0.8574 0-1.559-0.4181-1.559-0.9291 0-1.176 6.4774-2.4447 26-5.0925 68.474-9.287 128.56-32.685 181.68-70.752 29.964-21.472 65.049-54.957 89.71-85.618 32.924-40.935 57.355-88.284 71.649-138.86 12.184-43.111 16.955-84.56 15.51-134.75-0.754-26.188-1.6202-35.281-5.5832-58.612-14.445-85.039-53.19-157.87-118.87-223.45-18.536-18.507-29.095-27.663-50.884-44.124l-13.304-10.051 2.6531-1.3765c2.6506-1.3751 4.445-1.1039 4.445 0.67195 0 0.51754-0.675 0.94098-1.5 0.94098s-1.5 0.45-1.5 1c0 1.3995 2.3489 1.2477 3.8673-0.25 1.0154-1.0015 1.5244-0.90211 2.5603 0.5 0.7111 0.9625 2.0308 1.75 2.9327 1.75 0.9018 0 1.6397 0.45 1.6397 1s-0.765 1-1.7 1c-1.2876 0-1.4192 0.28079-0.5424 1.1576 0.8769 0.87682 1.5211 0.85594 2.6562-0.0861 0.8242-0.68404 2.0365-0.91128 2.6939-0.50498 0.8702 0.53779 0.7298 1.0791-0.516 1.9901-1.1441 0.8366-1.3456 1.4774-0.6077 1.9334 0.607 0.37515 1.6992 0.1878 2.4271-0.41633 0.9767-0.81058 1.6181-0.74352 2.4476 0.25592 0.6182 0.74489 0.8279 1.6504 0.466 2.0123-0.3619 0.36189 0.5154 0.65799 1.9496 0.65799s2.8858 0.45 3.2257 1 0.1033 1-0.5257 1c-0.6291 0 0.1304 1.35 1.6877 3s3.2475 3 3.756 3 1.7668 0.76227 2.7963 1.6939c1.7591 1.5919 1.8326 1.5919 1.2218 0-0.8187-2.1333 0.8908-2.2099 2.6272-0.11771 0.9333 1.1246 0.9902 1.7727 0.1984 2.262-1.6974 1.049 5.77 6.8239 10.455 8.0855 4.1225 1.1101 7.1251 3.5675 5.8801 4.8125-0.3784 0.37839-1.68 0.0788-2.8925-0.66582-2.1934-1.347-2.1949-1.343-0.2995 0.78786 1.0477 1.1779 2.4496 2.1416 3.1151 2.1416 0.6656 0 2.3544 0.9 3.7528 2s3.2226 2 4.0538 2c1.6333 0 14.962 14.045 14.124 14.883-0.2791 0.27906-3.7278-2.6179-7.6639-6.4376l-7.1564-6.945 6.1017 7c7.4016 8.4913 15.268 16.239 15.268 15.037 0-0.48371-0.7472-1.7052-1.6605-2.7143s-1.4258-2.0696-1.139-2.3564c1.1814-1.1814 11.022 9.1143 13.449 14.071 1.7308 3.5347 3.0612 5.1272 3.9867 4.7721 2.0637-0.79193 4.2099 1.4458 5.4925 5.7267 0.8045 2.6849 1.5685 3.6336 2.6056 3.2357 1.7687-0.67873 2.9072 0.93065 4.3506 6.1501 0.7311 2.6436 1.3464 3.4981 1.8879 2.6219 1.0444-1.6898 3.027-0.44617 3.027 1.8987 0 1.0034 0.9 2.0597 2 2.3474 1.1829 0.30933 2 1.364 2 2.5814 0 1.1321 0.9 2.5401 2 3.1288s2 1.9545 2 3.0352c0 1.0942 0.6758 1.9648 1.525 1.9648 0.8926 0 1.7725 1.2373 2.1218 2.9838 0.3282 1.6411 0.9919 2.7395 1.475 2.441 0.483-0.29853 0.8851 0.49627 0.8935 1.7662 0.01 1.27 0.4516 2.984 0.9847 3.809 0.8284 1.2819 0.9716 1.2456 0.9847-0.25 0.01-0.9625 0.4653-1.75 1.0153-1.75s1 0.85186 1 1.893c0 1.0412 0.7257 2.1715 1.6126 2.5118 1.177 0.45164 1.3275 0.96241 0.5572 1.8905-0.6677 0.80463-0.7147 1.8103-0.1279 2.7382 0.6301 0.9963 0.9324 1.0657 0.9428 0.21646 0.01-0.6875 0.4653-1.25 1.0153-1.25s1 1.1516 1 2.559c0 1.4514 0.4329 2.2915 1 1.941 0.55-0.33992 1 0.0835 1 0.94098 0 0.85746 0.45 1.559 1 1.559s1 0.9 1 2c0 1.2323 0.6718 2.0059 1.75 2.0153 1.4956 0.0131 1.5319 0.15626 0.25 0.98469-1.2684 0.81974-1.2176 0.97174 0.3295 0.98469 1.5106 0.0126 1.7146 0.53792 1.1707 3.0143-0.516 2.3494-0.3513 2.8811 0.7604 2.4545 2.0375-0.78189 3.8057 1.8077 4.0715 5.9631 0.1504 2.3506 0.9667 4.1044 2.3667 5.085 1.1755 0.8233 3.1391 3.118 4.3636 5.0994 1.8394 2.9761 1.984 3.756 0.832 4.4854-1.025 0.64906-0.7321 0.89108 1.1056 0.91359 1.5885 0.0195 2.052 0.31523 1.2712 0.81123-0.9052 0.57502-0.682 1.2488 0.8475 2.5584 1.6152 1.383 1.9419 2.4938 1.4713 5.0027-0.3961 2.1111-0.095 3.8989 0.8707 5.1763 1.1302 1.4946 1.4909 1.6002 1.5408 0.45142 0.046-1.0576 0.6578-0.78801 2.0751 0.91423 1.5731 1.8895 1.7289 2.5959 0.7167 3.25-1.0492 0.67801-1.0372 1.0009 0.064 1.7108 1.0299 0.66417 1.0673 1.0539 0.1556 1.6174-0.8318 0.51406-0.2292 1.63 1.9594 3.629 2.2953 2.0965 2.987 3.433 2.527 4.8826-0.3485 1.0978-0.2057 1.996 0.3172 1.996s1.2285 0.7875 1.568 1.75 0.9078 2.425 1.2628 3.25c0.4304 1.0002-0.1182 0.83355-1.6462-0.5l-2.2916-2 1.1177 2.1324c0.6148 1.1728 1.8697 2.4209 2.7887 2.7735s1.3854 0.92669 1.0364 1.2756c-0.3489 0.34895-0.1242 1.2492 0.4994 2.0006 0.6236 0.75139 0.8517 1.6483 0.5069 1.9931s0.1535 1.2254 1.1075 1.9568c1.4352 1.1004 1.496 1.4868 0.3523 2.2396-1.094 0.72005-0.9376 1.0508 0.75 1.5864 2.2264 0.70664 2.9554 2.5419 1.0097 2.5419-0.8216 0-0.8169 0.36813 0.017 1.3732 0.6268 0.75529 0.8588 2.1053 0.5154 3-0.4169 1.0864-0.09 1.6268 0.9828 1.6268 1.7733 0 2.2295 2.6258 0.5533 3.1846-0.7181 0.23938-0.7383 1.1415-0.063 2.8333 0.8191 2.053 1.0013 2.145 1.0537 0.53212 0.083-2.5584 1.61-0.87807 2.4533 2.7 0.5195 2.2039 0.2969 2.7544-1.1209 2.7722-1.4611 0.0184-1.3338 0.3794 0.731 2.0739 1.6784 1.3774 2.0892 2.2191 1.25 2.5611-2.0056 0.81739-1.439 3.3428 0.75 3.3428 2.4659 0 2.6226 1.5447 0.25 2.4644-1.576 0.61095-1.5934 0.79561-0.1753 1.857 1.4108 1.056 3.9253 6.6908 3.9253 8.7964 0 0.45066-0.7531 0.53039-1.6736 0.17717-1.2903-0.49516-1.5193-0.24024-1 1.1132 0.3705 0.96547 0.6736 1.9436 0.6736 2.1736 0 0.23001 0.6269 0.41821 1.393 0.41821 0.7662 0 1.6521 0.675 1.9686 1.5 0.3507 0.91371 0 1.5-0.893 1.5-2.1559 0-1.7895 2.7579 0.5314 4 2.4332 1.3022 2.6175 3 0.3257 3-1.4217 0-1.3463 0.34915 0.5 2.3144 2.5315 2.6947 2.9764 6.2073 0.6743 5.3239-2.1358-0.81959-1.8654 0.13862 1 3.544 3.0886 3.6706 3.3309 6.2161 0.5063 5.3196-1.5305-0.48576-1.8541-0.26908-1.393 0.93261 0.3304 0.86096 1.04 1.5654 1.577 1.5654s0.7902 0.55848 0.5627 1.2411 0.185 1.8397 0.9167 2.5714 1.2948 2.3107 1.2514 3.5089c-0.043 1.1982-0.306 1.6161-0.5834 0.92857-0.7025-1.7412-2.3377-1.5663-2.3377 0.25 0 0.825 0.3404 1.5 0.7565 1.5 0.8398 0 3.2435 7.0725 3.2435 9.5433 0 0.86612-0.4532 1.2947-1.007 0.95236-1.394-0.86153-2.4343 2.2485-1.26 3.7671 2.128 2.7522 5.008 20.313 3.1421 19.16-0.4813-0.29747-0.9384-1.3018-1.0159-2.2318-0.077-0.93004-0.4829 0.78402-0.9011 3.809-0.9959 7.2046-1.119 18.794-0.3022 28.457 0.6144 7.2691 0.7334 7.5784 1.8851 4.9009 1.1751-2.732 1.2107-2.6598 0.8088 1.6422-0.5895 6.3113-2.512 15.319-3.5108 16.45-0.4614 0.5225-0.839 1.8297-0.839 2.905 0 1.8916 0.065 1.8963 2 0.14501 1.1-0.99549 2-1.3419 2-0.76982 0 2.191-3.3447 11.27-4.1519 11.27-0.4664 0-0.8481 0.9551-0.8481 2.1224 0 1.7732 0.2468 1.9176 1.5 0.87756 2.5703-2.1332 1.8376 2.1538-1.0331 6.0449-2.22 3.009-2.3436 3.572-1 4.5545 1.821 1.3316 1.9826 3.5511 0.3755 5.1582-0.8768 0.87682-0.8666 1.5082 0.042 2.6031 0.9645 1.1621 0.7013 1.9832-1.3424 4.1884-1.3981 1.5086-2.5065 3.2397-2.4631 3.8469 0.046 0.64726 0.2885 0.58427 0.5854-0.15225 0.2786-0.69093 0.9181-1.0019 1.4211-0.69098 1.7353 1.0725 0.9071 4.5496-1.6476 6.9173l-2.5622 2.3746 4.6244 0.6554-2.7046 2.75c-1.803 1.8333-2.2197 2.75-1.25 2.75 1.749 0 1.7492-0.0325-0.046 7.4884-0.7863 3.2936-1.898 6.1446-2.4706 6.3354-0.5725 0.19085-0.7798 0.76955-0.4607 1.286 0.3192 0.51644 0.2919 2.2523-0.061 3.8575-0.4721 2.1497-1.0844 2.777-2.3241 2.3813-1.1355-0.36248-1.291-0.25241-0.4779 0.33834 1.9461 1.414-0.045 10.169-2.6841 11.8-0.6063 0.37471-0.8408 1.5056-0.521 2.513 0.3197 1.0074 0.1327 2.109-0.4157 2.4479-0.5483 0.3389-0.761 1.2312-0.4725 1.983 0.2885 0.75176 0.063 1.6518-0.5 2-0.5635 0.34825-0.7933 1.2357-0.5107 1.9721 0.2826 0.73642-0.1795 1.605-1.0268 1.9301-0.8905 0.34172-1.2916 1.2401-0.9505 2.129 0.3908 1.0185 0.01 1.5378-1.1393 1.5378-1.2996 0-1.4631 0.32092-0.6578 1.2912 0.7957 0.95884 0.5698 1.6046-0.8776 2.5085-1.072 0.6695-1.9491 1.7186-1.9491 2.3312 0 0.71701 0.5859 0.62769 1.6442-0.25063 1.4721-1.2218 1.5638-1.1037 0.8758 1.1276-0.4227 1.3707-0.8251 2.4922-0.8943 2.4922-0.069 0-0.999 0.48215-2.0662 1.0714-2.4192 1.3358-3.3669 3.6756-1.1431 2.8222 2.0249-0.77703 2.058 1.1289 0.049 2.8169-4.3732 3.6743-4.5592 3.9714-3.3774 5.3954 0.8385 1.0102 0.848 1.394 0.034 1.394-0.6173 0-1.1224 0.47656-1.1224 1.059s0.5625 0.76957 1.25 0.4158-0.2729 0.66984-2.1341 2.2747c-2.8751 2.479-3.4139 3.6329-3.5822 7.6714-0.109 2.6164-0.7806 5.1136-1.494 5.5545-0.7127 0.44052-0.9867 1.3013-0.6088 1.9128 0.4247 0.68713-0.1948 1.142-1.6219 1.1908-1.2699 0.0434-1.7465 0.30592-1.059 0.58333 1.8453 0.74458 1.5181 2.3256-0.5 2.4167-0.9625 0.0434-1.2128 0.29749-0.5562 0.56461 2.2804 0.92767-1.266 6.341-5.0476 7.7048-1.208 0.43566-1.635 1.2385-1.2258 2.3047 0.3489 0.90922-0.1032 2.444-1.0176 3.4543-0.9049 0.99998-1.3968 2.4659-1.093 3.2576 0.7694 2.0049-0.3543 2.843-1.9908 1.4848-1.1135-0.9241-1.3147-0.51882-1.092 2.1994 0.205 2.502-0.2309 3.5962-1.7495 4.3915-1.148 0.60126-1.8729 1.816-1.6767 2.8093 0.1902 0.9625-0.1372 1.75-0.7275 1.75s-1.0733 0.70156-1.0733 1.559-0.45 1.2809-1 0.94098c-0.5671-0.35052-1 0.48962-1 1.941 0 2.8325-1.9583 3.5978-2.0703 0.80902-0.06-1.4835-0.191-1.4455-0.8635 0.25-0.4551 1.1474-0.3705 2.2721 0.1984 2.6382 1.2708 0.81786 0.035 2.8618-1.73 2.8618-0.855 0-1.1562 0.7308-0.8243 2 0.2876 1.1 0.053 2-0.5203 2-0.5738 0-1.2491-0.7875-1.5007-1.75-0.2838-1.0861-0.5013-0.71543-0.5733 0.97695-0.073 1.7264-1.0397 3.3322-2.6335 4.3765-1.903 1.2469-2.2534 1.9678-1.4354 2.9533 0.8134 0.98013 0.5695 1.5781-0.9825 2.4087-1.1355 0.60771-2.0646 1.7483-2.0646 2.5346s-0.8482 1.8836-1.885 2.4384c-1.0367 0.55484-2.1703 2.1457-2.519 3.5352-0.6994 2.7864-2.2669 3.3697-2.7727 1.0316-0.2137-0.98792-0.91-0.46342-2.0537 1.5469-0.9517 1.6729-1.3203 2.7882-0.8191 2.4784s1.1897-0.11281 1.5299 0.43769-0.8618 1.9012-2.6712 3.0015c-1.8094 1.1004-3.2941 2.7838-3.2995 3.7411 0 0.95724-1.4384 2.6514-3.1847 3.7648-1.7463 1.1134-3.4271 2.976-3.7351 4.1391-0.3081 1.1632-3.4918 4.6887-7.075 7.8346s-6.5149 6.2916-6.5149 6.9906c0 1.8321-11.116 13.696-15.651 16.704-2.1168 1.404-6.4164 4.2068-9.5546 6.2286-5.3971 3.477-7.7715 5.6275-6.2133 5.6275 0.3843 0 1.274-0.78679 1.9772-1.7484 0.7032-0.96163 1.6369-1.39 2.0749-0.95203 1.4274 1.4274-1.2469 4.1644-5.7373 5.8716-2.4176 0.91915-4.2673 2.204-4.1105 2.8553 0.3378 1.4029-1.6124 3.9736-3.0145 3.9736-0.5415 0-0.6848-0.7875-0.3183-1.75 0.7731-2.0308 0.055-1.2771-3.8083 4-1.5102 2.0625-3.3256 3.75-4.0344 3.75-0.7087 0-1.8011 1.125-2.4276 2.5-1.1323 2.485-3.182 3.4347-3.182 1.4743 0-0.58409-1.2916-0.35777-3 0.52568-1.65 0.85325-2.9645 2.1023-2.921 2.7757 0.061 0.93838 0.1967 0.93238 0.5833-0.0257 0.7026-1.7412 2.3377-1.5663 2.3377 0.25 0 0.825-0.8625 1.5-1.9167 1.5-1.0541 0-2.0787 0.4863-2.2768 1.0807-0.1982 0.59437-1.9232 1.3994-3.8334 1.7889-2.3958 0.48855-3.8777 1.5491-4.7777 3.4193-1.3616 2.8296-3.1236 3.611-3.2951 1.4611-0.055-0.6875-0.4047-0.15836-0.7775 1.1759-0.8256 2.9541-3.0881 3.9452-3.213 1.4075-0.05-1.0083-0.5166-0.35479-1.0378 1.4523-0.5307 1.84-1.401 3.0055-1.978 2.6488-0.5667-0.35024-0.748-1.3788-0.4029-2.2856 0.4076-1.0711 0.2903-1.2985-0.3348-0.64885-0.5292 0.55-1.1343 1.9-1.3448 3-0.2879 1.5049-1.0501 1.9294-3.0791 1.715-2.0211-0.21364-2.556 0.0812-2.1355 1.177 0.4276 1.1141 0.01 1.3192-1.7679 0.86162-2.08-0.53625-2.1823-0.42154-0.9565 1.073 1.1817 1.4409 1.147 1.6734-0.25 1.6734-0.8924 2e-5 -1.6225-0.48748-1.6225-1.0833 0-0.59584-0.5625-0.87709-1.25-0.625-0.6875 0.25208-1.1217 1.012-0.9649 1.6886 0.4117 1.7767-1.8783 4.198-3.4133 3.6089-0.7192-0.27601-1.5476-0.11373-1.8408 0.36061-0.2931 0.47435-1.5029 0.60881-2.6884 0.29881-1.5165-0.39658-1.9353-0.20756-1.4129 0.63768 0.8443 1.3661-1.2251 4.3582-2.4784 3.5836-0.4522-0.27946-1.9558 0.6255-3.3413 2.011s-3.6027 2.5191-4.927 2.5191c-1.3244 0-4.1067 1.35-6.183 3-3.8008 3.0205-6.5 3.851-6.5 2 0-1.8524-1.7617-1.0192-2.3145 1.0946-0.4509 1.7244-1.0585 1.9824-3.4378 1.4598-2.4779-0.54425-3.0755-0.23689-4.1907 2.1554-1.218 2.6128-1.3529 2.663-2.1206 0.79018-0.7872-1.9204-0.8476-1.9071-1.5168 0.33453-0.5204 1.7429-0.9081 1.9964-1.5299 1-1.003-1.6074-4.3897 0.083-4.3897 2.1911 0 0.71923-0.5625 1.4952-1.25 1.7244s-1.25-0.37083-1.25-1.3333-0.3375-1.4125-0.75-1-0.75 1.2375-0.75 1.8333-0.6251 1.2917-1.3892 1.5464c-0.8432 0.28107-1.1148 0.0191-0.691-0.66667 0.3841-0.62135 0.2217-1.1297-0.3608-1.1297-0.5824 0-1.059 0.49814-1.059 1.107 0 0.60884-0.6306 0.86498-1.4014 0.5692-0.8333-0.31977-1.6062 0.24497-1.9064 1.393-0.6028 2.3052-2.6922 2.5937-2.6922 0.37178 0-0.85746-0.4807-1.2619-1.0682-0.89885-0.5875 0.3631-0.8266 1.2896-0.5313 2.059 0.3352 0.87352-0.1274 1.3988-1.2319 1.3988-0.9727 0-2.1961 0.37414-2.7186 0.83142-1.4345 1.2554-9.3675 3.3376-10.366 2.7206-0.481-0.29731-1.171 0.23174-1.5332 1.1757-0.5651 1.4725-0.7929 1.5072-1.6048 0.24425-0.8192-1.2744-1.0701-1.2793-1.87-0.0363-0.7719 1.1996-1.1869 1.2173-2.5241 0.1075-1.7472-1.45-1.7517-1.4481-3.3742 1.4568-0.6144 1.1-1.1308 1.4375-1.1475 0.75-0.041-1.6702-2.0304-1.6146-2.0304 0.0567 0 1.661-14.308 5.2688-14.819 3.7365-0.1913-0.57377-0.9711-1.0432-1.733-1.0432-0.8206 0-1.1506 0.61153-0.8097 1.5 0.7979 2.0793-1.6194 1.8932-3.2463-0.25-1.2417-1.6357-1.3306-1.638-1.3603-0.0352-0.046 2.4639-3.8678 4.3762-4.6536 2.3283-0.8205-2.1382-2.0441-1.9287-2.6679 0.45688-0.6352 2.4289-3.2523 2.6359-4.1382 0.3273-0.5665-1.4764-0.8205-1.4177-2.1637 0.5-1.8384 2.6247-4.2178 2.7919-6.0163 0.4227-1.1801-1.5545-1.332-1.568-1.3603-0.12132-0.018 0.89577-1.3994 2.1952-3.071 2.8876-2.6574 1.1007-3.2035 1.034-4.3478-0.53084-1.2447-1.7022-1.4139-1.6844-3.4608 0.36245-2.5133 2.5132-4.7004 2.7719-5.5138 0.65216-0.7376-1.922-2.5274-1.9104-4.6719 0.0303-0.93 0.84166-3.0442 1.9184-4.6983 2.3928-2.4097 0.69112-3.3293 0.48639-4.628-1.0303-2.1192-2.4751-5.3384-2.4189-6.1402 0.10722-0.3491 1.1-1.4416 2-2.4278 2s-3.9512 0.2958-6.5889 0.65734c-3.5117 0.48133-4.6043 0.34745-4.0805-0.5zm109.33-20.762c-0.3323-0.33229-1.1948-0.36781-1.9167-0.0789-0.7977 0.31922-0.5608 0.55618 0.6042 0.60416 1.0541 0.0434 1.6448-0.19293 1.3125-0.52522zm50.271-19.396c0.825-0.53316 1.05-0.96937 0.5-0.96937s-1.675 0.43621-2.5 0.96937-1.05 0.96937-0.5 0.96937 1.675-0.43621 2.5-0.96937zm13-7.2294c0-0.58531-0.6354-0.48812-1.5 0.22943-0.825 0.68469-1.5 1.4007-1.5 1.5911s0.675 0.0872 1.5-0.22943c0.825-0.31659 1.5-1.0326 1.5-1.5911zm63.5-41.771c0.3399-0.55 0.1415-1-0.441-1-0.5824 0-1.059 0.45-1.059 1s0.1985 1 0.441 1 0.7191-0.45 1.059-1zm41.749-38.5c1.4212-2.0635 0.4562-1.4509-3.0914 1.9624-2.8366 2.7293-5.1575 5.401-5.1575 5.9371 0 1.2916 5.6361-4.1058 8.2489-7.8995zm14.251-15.5c0.9955-1.1 1.585-2 1.31-2s-1.3145 0.9-2.31 2-1.585 2-1.31 2 1.3145-0.9 2.31-2zm96.683-203.22c-0.7175-0.71756-1.1833-0.7766-1.1833-0.15 0 1.3348 1.1826 2.5174 1.85 1.85 0.2842-0.28416-0.016-1.0492-0.6667-1.7zm-94.183-342.16c0-0.20765-0.7875-0.99515-1.75-1.75-1.586-1.2439-1.6214-1.2085-0.3775 0.37756 1.3063 1.6658 2.1275 2.1955 2.1275 1.3724zm-10-12c0-0.20765-0.7875-0.99515-1.75-1.75-1.586-1.2439-1.6214-1.2085-0.3775 0.37756 1.3063 1.6658 2.1275 2.1955 2.1275 1.3724zm-354.46 699.65c-1.0771-0.2736-3.0678-1.2244-4.4237-2.1128-1.835-1.2023-2.5702-1.3011-2.875-0.38656-0.5847 1.7541-2.7436 1.5242-7.243-0.77116-4.6975-2.3965-5.1074-2.4435-4.3616-0.5 0.838 2.1837-0.8527 1.8438-5.0725-1.0199-3.4484-2.3401-3.6675-2.3758-3.0722-0.5 0.8288 2.6114-0.9971 2.6227-3.2257 0.0199-1.8076-2.1111-4.268-2.6876-4.268-1 0 1.4013-1.2858 1.245-3.5589-0.43268-1.5943-1.1767-1.7091-1.668-0.6425-2.75 1.0104-1.025 10.219-1.4547 41.5-1.9366 59.984-0.92397 87.523-4.7354 130.2-18.02 104.22-32.441 196.98-112.05 247.1-212.05 30.452-60.771 45.714-137.43 41.587-208.89-6.1588-106.63-40.175-185.91-113.89-265.46-27.312-29.472-58.639-54.672-98.715-79.408-3.0701-1.895-5.5821-3.8233-5.5821-4.2852 0-0.46185 0.9-0.35805 2 0.23065s2 0.86018 2 0.60329-4.0697-2.6128-9.0438-5.2355c-9.7262-5.1282-11.543-6.61-10.39-8.4755 0.5319-0.86075 1.1158-0.67958 2.0861 0.64733 0.9056 1.2386 1.3473 1.395 1.3473 0.47718 0-0.92094 0.7535-0.65762 2.3145 0.80887 2.4685 2.3191 4.6855 2.8506 4.6855 1.1234 0-0.57799 1.575 0.15042 3.5 1.6187s3.5 2.1739 3.5 1.568c0-0.63571 1.4931-0.26299 3.5304 0.88131 1.9418 1.0906 4.5867 1.9829 5.8776 1.9829 3.2936 0 5.092 2.3401 3.081 4.0091-1.3115 1.0884 0.037 2.1731 9.2377 7.4305 36.829 21.045 59.534 38.76 94.273 73.554 22.979 23.015 35.75 37.646 47.17 54.036 24.148 34.658 43.268 71.533 54.741 105.57 31.327 92.942 28.715 202.6-6.9704 292.6-32.021 80.755-96.66 156.56-172.94 202.82-24.225 14.69-55.113 29.331-78.081 37.009-46.706 15.613-97.827 22.88-152.92 21.736-13.482-0.27988-22.476-0.14952-20 0.28986 2.475 0.43917 6.3161 0.83184 8.5357 0.87261 3.3444 0.0614 4.0357 0.41675 4.0357 2.0741 0 1.9957-1.0905 2.2712-5.0297 1.2706zm43.958-8.2939c125.99-7.4411 232.77-65.363 310.6-168.48 43.994-58.289 69.31-123.96 78.448-203.5 2.4436-21.27 1.5843-82.339-1.4423-102.5-8.6265-57.463-23.468-102.05-48.627-146.1-8.022-14.044-26.984-42.21-35.95-53.4-16.957-21.163-44.465-49.32-65.892-67.447-16.045-13.574-40.113-30.64-55.135-39.095-7.5262-4.2359-5.3148-2.5221 8.5 6.5876 63.031 41.564 121.96 106.84 152.96 169.45 39.202 79.165 52.046 171.1 36.503 261.28-17.111 99.28-70.262 187.72-152.7 254.08-39.174 31.534-89.978 58.373-135.26 71.46-38.403 11.097-66.923 15.363-117.5 17.574l-18.5 0.8089 13.5 0.14033c7.425 0.0772 21.15-0.31148 30.5-0.8637zm176.5-783.45c0-0.26088-1.35-1.1724-3-2.0257-3.7609-1.9448-3.9884-1.1001-0.25 0.92803 3.1426 1.7049 3.25 1.7412 3.25 1.0976zm-4-8.5257c0-0.55-0.675-1-1.5-1s-1.5 0.45-1.5 1 0.675 1 1.5 1 1.5-0.45 1.5-1zm-181.49 799.98c0.3455-0.55897 1.047-0.75742 1.559-0.44098 1.3871 0.85723 1.1284 1.4573-0.6281 1.4573-0.8575 0-1.2764-0.45734-0.9309-1.0163zm24.29-0.18369c0.9333-0.93333 1.4667-0.93333 2.4 0s0.6667 1.2-1.2 1.2-2.1333-0.26667-1.2-1.2zm-102.55-6.4623c-1.6903-0.68208-1.5891-2.3377 0.143-2.3377 0.7662 0 1.6521 0.675 1.9686 1.5 0.5885 1.5335 0.096 1.7287-2.1116 0.83772zm-6.2416-1.3224c-1.1771-0.73547-1.2333-1.1904-0.2667-2.157 1.4565-1.4565 2.5713-0.63932 2.0967 1.5371-0.2411 1.1056-0.7674 1.2839-1.83 0.61991zm-5.5814-1.4938c-1.6919-1.28-1.7207-1.4617-0.236-1.4897 0.93-0.0175 1.9876 0.44814 2.3501 1.0347 1.0894 1.7626-0.059 2.0097-2.1141 0.45494zm-10.177-2.2417c-1.5013-0.53617-1.6841-3.2798-0.2186-3.2798 1.0315 0 2.5471 2.8024 1.8422 3.4062-0.2055 0.17599-0.9361 0.11908-1.6236-0.12646zm3.9-0.22976c0.4297-1.2891 1.8013-1.5207 1.925-0.325 0.041 0.39875-0.465 0.905-1.125 1.125s-1.02-0.14-0.8-0.8zm4.85-1.0441c0-1.3536 0.2904-1.364 42-1.5049 45.968-0.15534 68.172-2.3206 103-10.044 57.582-12.77 115.53-40.797 163.5-79.084 13.466-10.747 56.239-53.371 66.605-66.372 44.217-55.461 71.295-114.31 83.288-181 15.315-85.165 5.8138-174.51-26.371-248-35.827-81.802-105.28-157.67-184.52-201.55-7.7-4.2643-15.923-8.8356-18.274-10.158-2.5015-1.4075-3.9927-2.8604-3.5955-3.5031 0.4206-0.68058 0.2157-0.81204-0.5388-0.34571-0.6696 0.41386-1.9767 0.0655-2.9045-0.77423-0.9278-0.83969-2.137-1.5448-2.687-1.5669-0.55-0.0221-1.1518-1.2917-1.3373-2.8213l-0.3374-2.7811 2.5874 2.4243c2.29 2.1457 2.5873 2.2141 2.5873 0.59502 0-1.6563 0.1655-1.6851 1.75-0.30481 0.9625 0.83848 2.3125 1.3207 3 1.0717 0.7449-0.26986 1.25 0.38897 1.25 1.6305 0 2.1781 1.4382 2.8013 2.5 1.0833 0.3399-0.55 1.379-0.98569 2.309-0.9682 1.5244 0.0287 1.5108 0.16836-0.138 1.418-3.2064 2.4302-0.5446 4.7078 16.445 14.072 56.536 31.16 103.29 72.136 142.05 124.48 29.495 39.841 47.943 75.712 62.226 121 21.437 67.969 24.067 151.86 7.1225 227.19-19.566 86.977-75.2 171.45-153.01 232.34-5.5 4.3035-16.975 12.398-25.5 17.987-46.383 30.412-87.073 47.212-140.5 58.01-34.327 6.9378-42.868 7.664-95.25 8.0996-31.278 0.26011-47.25 0.0529-47.25-0.61296zm-14-1.5059c0-1.7676-2.6555-2.0335-3.2257-0.32295-0.2373 0.71203-0.9227 0.84926-1.7348 0.34736-2.0013-1.2369 1.5588-3.5244 5.485-3.5244 4.0716 0 4.8746 0.90152 2.8227 3.1688-2.01 2.221-3.3472 2.3533-3.3472 0.33115zm-10.446-1.4129c-0.3696-0.59792-1.5454-1.0871-2.6129-1.0871s-1.941-0.45-1.941-1c0-1.2608 4.0111-1.2785 5.9917-0.0263 1.1078 0.70042 1.2012 1.2335 0.3628 2.0718-0.8068 0.8068-1.3204 0.81868-1.8006 0.0416zm20.446 0.51986c0-0.97099 2.8174-1.3359 4.0907-0.52978 1.0257 0.6493 0.6607 0.89633-1.3407 0.90748-1.5125 8e-3 -2.75-0.16155-2.75-0.3777zm-31.5-3.3201c-2.9133-0.70075-4.1007-2.1192-2.3397-2.795 1.8586-0.7132 6.8397 1.0953 6.8397 2.4833 0 1.061-1.0752 1.1354-4.5 0.31168zm-9.75-3.0032c-1.5125-0.22913-2.75-0.84528-2.75-1.3692 0-0.52395-1.125-0.67028-2.5-0.32517-1.4434 0.36227-2.5 0.19615-2.5-0.39305 0-0.56128-1.9125-1.336-4.25-1.7215s-4.7651-1.1159-5.3947-1.623-1.5296-0.83479-2-0.72818c-0.47039 0.10662-1.5303-0.0478-2.3553-0.34307-0.825-0.29531-7.905-2.0542-15.733-3.9088-9.446-2.2377-14.239-3.819-14.25-4.7013-0.0116-0.92424 0.82144-1.155 2.7332-0.75708 8.4202 1.7525 39.363 6.6144 49.25 7.7384 17.52 1.9917 75.246 1.6593 95.5-0.54991 50.946-5.557 91.397-17.006 134-37.927 62.175-30.531 118.43-78.731 159.48-136.64 22.069-31.135 42.767-72.375 54.57-108.73 8.5195-26.241 15.578-62.677 17.577-90.724 1.5526-21.794 0.5779-82.102-1.5772-97.585-3.7758-27.127-11.929-61.014-20.331-84.5-31.552-88.197-100.39-170.29-185.02-220.65-19.005-11.309-47.441-24.584-66.179-30.894-9.7582-3.2861-11.947-5.4962-4.3755-4.4186 2.6726 0.38039 7.4325 1.5403 10.578 2.5776 3.1451 1.0373 6.6326 1.886 7.75 1.886 1.1173 0 2.0315 0.45857 2.0315 1.019 0 0.58765 1.0584 0.75342 2.5 0.39159 1.4362-0.36047 2.5-0.19575 2.5 0.38711 0 0.55802 2.2495 1.324 4.9989 1.7021 2.7494 0.37813 5.2623 1.1137 5.5842 1.6345 0.3219 0.52085 1.4095 0.68539 2.4169 0.36564s2.0951-0.15521 2.417 0.36564c0.3219 0.52084 2.8347 1.2564 5.5841 1.6345 2.7494 0.37814 4.9989 1.1565 4.9989 1.7296 0 0.66458-1.7207 0.81481-4.75 0.4147-4.3649-0.57653-3.5746-0.0139 9.75 6.9408 29.822 15.566 54.787 31.677 79.204 51.115 68.899 54.851 122.57 133.63 144.66 212.33 15.837 56.429 20.247 122.14 12.046 179.47-11.061 77.33-41.04 144.6-91.778 205.94-16.24 19.633-46.458 48.73-68.628 66.082-11.357 8.8889-36.535 25.624-50.164 33.342-46.397 26.276-101.9 43.32-158.61 48.701-13.727 1.3028-25.997 1.5637-60.354 1.2836-34.246-0.27921-43.025-0.0938-42.643 0.90075 0.2643 0.68879 0.095 1.1849-0.3764 1.1025-0.4713-0.0824-2.0945-0.3373-3.607-0.56642zm-56.24-14.267c-0.73755-1.1934 0.19857-3.0163 1.5489-3.0163 1.2168 0 1.2247 2.7066 0.0101 3.4573-0.512 0.31644-1.2136 0.11799-1.559-0.44098zm-70.873-26.345c-4.8561-2.576-7.2023-4.3031-6.1353-4.5164 2.2724-0.45435 16.706 6.6996 15.959 7.9096-0.82206 1.3301-1.1001 1.2341-9.8232-3.3932zm-13.775-6.3537c-0.19938-0.47173-4.4864-2.9525-9.5268-5.5128-30.993-15.743-66.221-42.516-98.347-74.742-67.642-67.852-104.56-141.45-118.68-236.56-2.6691-17.987-2.6456-100.45 0.0337-118 13.791-90.356 44.401-155.19 104.08-220.46 41.674-45.574 92.158-81.938 144.38-104 33.168-14.011 75.886-25.431 112.2-29.996 24.025-3.0201 98.192-3.8922 106.5-1.2523 5.8857 1.8703-0.3223 2.5155-17.863 1.8566-9.9479-0.3737-23.849-0.16688-33.137 0.49299-8.8 0.62521-18.925 1.2583-22.5 1.4068-9.767 0.40576-31.397 3.3227-41 5.5291-4.675 1.0741-13.225 2.8754-19 4.0028-10.785 2.1055-19.204 4.3658-22.199 5.96-0.93419 0.49729-4.9842 1.6425-9 2.5449-4.0158 0.9024-7.7929 2.0342-8.3935 2.515-0.6006 0.48084-1.3854 0.58092-1.7439 0.2224s-1.5197 0.13352-2.5804 1.0934c-1.0607 0.95991-3.7634 1.9914-6.0061 2.2922-2.2427 0.3008-4.0776 0.90534-4.0776 1.3434 0 1.1127-10.941 5.095-12.074 4.3947-0.5095-0.3149-0.92637-0.073-0.92637 0.53751 0 1.3345-6.7158 4.3017-7.9749 3.5235-0.48779-0.30147-1.2005-0.0407-1.5837 0.57941-0.38326 0.62014-6.3769 3.9003-13.319 7.2892-6.9422 3.3889-14.414 7.3889-16.604 8.8888-2.1902 1.4999-4.4908 2.7271-5.1125 2.7271s-2.8067 1.3322-4.8556 2.9605c-2.0489 1.6282-4.6884 3.2661-5.8655 3.6398s-4.4002 2.3564-7.1622 4.4062c-2.7621 2.0498-7.272 4.999-10.022 6.5539-2.75 1.5548-7.2769 4.8773-10.06 7.3833-2.7829 2.506-7.7197 6.3564-10.971 8.5564s-6.8928 5.1381-8.0932 6.5291c-1.2004 1.391-3.3598 3.1592-4.7988 3.9293s-5.4201 4.0734-8.847 7.3406c-6.6849 6.3735-8.0054 7.7175-17.231 17.538-3.3 3.5129-7.9441 7.7301-10.32 9.3714-2.3762 1.6414-4.0809 3.2237-3.7884 3.5162 0.57228 0.57228-12.198 15.834-17.384 20.775-1.7317 1.65-5.6427 6.7462-8.6911 11.325-3.0484 4.5787-6.1486 8.5574-6.8892 8.8416-0.74062 0.2842-3.1727 3.8441-5.4047 7.9109s-5.3184 8.863-6.8586 10.658c-1.5403 1.7954-3.4232 4.8148-4.1844 6.71s-2.5751 4.8201-4.031 6.5-2.9513 4.3032-3.323 5.8297c-0.37173 1.5265-1.5269 3.6265-2.5671 4.6667-1.0402 1.0402-1.627 2.1555-1.304 2.4785 0.32301 0.323-0.33044 1.598-1.4521 2.8333-1.1217 1.2353-2.312 3.404-2.6453 4.8192-0.33325 1.4152-1.7423 4.2477-3.1312 6.2944s-2.5308 4.4888-2.5374 5.4269c-7e-3 0.93807-1.1316 3.664-2.5 6.0577-1.3684 2.3936-2.488 4.886-2.488 5.5386 0 0.65257-0.9 2.9518-2 5.1094s-2 4.3607-2 4.8957-0.8692 2.8024-1.9316 5.0386c-1.0624 2.2361-2.6923 6.7657-3.622 10.066-0.92975 3.3-2.5284 7.7572-3.5525 9.9049-1.0241 2.1477-2.3558 6.6477-2.9592 10-0.60346 3.3523-1.7114 7.4451-2.4621 9.0951s-2.2747 8.175-3.3867 14.5-2.6682 13.641-3.4583 16.258c-0.79003 2.6167-1.1942 5.6837-0.89819 6.8157 0.29602 1.132 0.0563 3.0411-0.53277 4.2424-1.5617 3.1851-3.282 23.064-4.0796 47.141-1.0665 32.194 0.77689 71.877 4.3453 93.543 0.31705 1.925 1.0624 6.65 1.6564 10.5s1.4573 7.9 1.9186 9c0.46127 1.1 1.0595 3.575 1.3294 5.5 0.61471 4.3849 1.6198 9.0437 2.3732 11 0.31771 0.825 0.47703 1.925 0.35405 2.4446-0.12299 0.51951 0.20696 1.8695 0.73323 3 1.284 2.7583 6.8258 19.37 9.3594 28.055 2.0118 6.8968 3.721 11.277 6.5628 16.819 0.79507 1.5506 1.1915 3.0733 0.8809 3.3839-0.31057 0.31057 0.32058 1.6901 1.4026 3.0656 1.082 1.3755 1.9672 3.5653 1.9672 4.8661s0.45 2.3651 1 2.3651 1 0.49419 1 1.0982c0 1.65 12.651 26.533 15.9 31.271 1.5573 2.2718 4.1621 6.6056 5.7884 9.6306 3.8774 7.2122 12.762 20.966 15.181 23.5 1.0499 1.1 2.6931 3.575 3.6516 5.5s3.6431 5.5483 5.9658 8.0517c2.3226 2.5034 5.5259 6.5419 7.1184 8.9744 1.5925 2.4325 4.3619 5.7219 6.1543 7.3097 1.7924 1.5878 3.5122 3.8493 3.8218 5.0256s2.5851 3.7136 5.0566 5.6386c2.4716 1.925 12.415 11.6 22.097 21.5 9.6817 9.9 22.14 21.504 27.684 25.786 17.529 13.537 34.713 25.897 46.122 33.173 15.571 9.9297 16.074 10.326 14.781 11.619-0.60322 0.60322-1.2599 0.71081-1.4593 0.23907zm526.32-1.3798c0.2406-0.72187 1.0281-1.5094 1.75-1.75 0.75-0.25 1.125 0.125 0.875 0.875-0.2406 0.72187-1.0281 1.5094-1.75 1.75-0.75 0.25-1.125-0.125-0.875-0.875zm-345.19-187.98c-12.741-1.2998-36.205-5.7373-45.063-8.5221-17.035-5.3555-37.455-16.405-53.398-28.894-9.1645-7.1791-24.992-22.942-32.672-32.539-16.956-21.189-30.002-48.848-35.91-76.132-2.6434-12.208-3.7559-46.983-2.0592-64.368 3.1174-31.942 16.858-65.067 37.954-91.5 7.6566-9.5935 24.515-26.367 33.648-33.48 26.399-20.559 53.97-31.273 89-34.585 28.693-2.7132 64.08 3.2263 88.583 14.868 21.029 9.9914 23.54 11.23 29.917 14.758 6.4382 3.5626 15.642 9.9824 19.5 13.601 1.1 1.0318 4.2574 3.6219 7.0163 5.7557 9.1264 7.0583 30.92 32.696 34.798 40.936 1.2024 2.555 2.8182 5.3096 3.5907 6.1213 1.5352 1.6133 11.21 21.894 11.699 24.524 0.5572 2.997 1.7498 5.5 2.6205 5.5 0.5447 0 0.7095 0.73204 0.3662 1.6268-0.3434 0.89471-0.1278 2.225 0.4791 2.9562 0.6068 0.7312 0.8322 1.7681 0.5009 2.3042s-0.2042 1.2208 0.2826 1.5216c0.4867 0.30081 1.1909 2.4694 1.5649 4.8191s1.3434 6.2307 2.1543 8.6246c5.2399 15.47 4.853 71.759-0.5819 84.648-0.4638 1.1-1.3772 5.0375-2.0297 8.75-0.6526 3.7125-1.6343 6.75-2.1816 6.75-0.5622 0-0.7222 1.0877-0.3677 2.5 0.3618 1.4416 0.196 2.5-0.3916 2.5-0.5605 0-1.0191 0.675-1.0191 1.5s-0.4765 1.5-1.059 1.5-0.7815 0.44908-0.4423 0.99795c0.3393 0.54887-0.042 2.2364-0.8471 3.75s-2.1862 4.8056-3.0691 7.3154c-0.883 2.5098-3.1249 7.0098-4.982 10-1.8572 2.9902-4.5327 7.6918-5.9455 10.448-3.8422 7.496-18.156 24.769-29.297 35.354-13.913 13.219-13.892 13.2-16.092 14.48-1.0919 0.63513-4.1859 2.8204-6.8754 4.8562-2.6896 2.0358-7.3652 4.9349-10.39 6.4426-3.025 1.5076-6.5732 3.5545-7.8848 4.5486-1.3117 0.99409-3.2657 1.8074-4.3423 1.8074s-3.1016 0.9-4.5 2-3.3305 2-4.2934 2c-0.963 0-3.0398 0.67223-4.6152 1.4938-1.5753 0.82161-3.6252 1.4966-4.5553 1.5-0.93 3e-3 -1.9736 0.4635-2.3191 1.0225-0.3454 0.55897-1.0667 0.74523-1.6028 0.41391s-1.5175-0.15393-2.1809 0.3942c-0.6634 0.54814-3.0062 1.3206-5.2062 1.7165-2.2 0.39594-4.4966 1.1116-5.1036 1.5904-0.6069 0.47879-2.1819 0.86368-3.5 0.85531-1.318-8e-3 -5.0964 0.40325-8.3964 0.9147-7.1288 1.1049-39.856 1.1397-50.5 0.0538zm15.407-1.8042c0.2886-0.46698 4.2527-1.1134 8.809-1.4366 11.368-0.80629 21.952-3.1239 37.287-8.1654 26.966-8.8651 46.821-21.716 69.027-44.678 10.789-11.156 16.58-18.328 23.72-29.374 13.451-20.81 24.47-51.823 26.754-75.3 1.1945-12.278 1.2015-36.663 0.014-49.824-2.5245-27.984-16.286-62.605-34.512-86.821-8.1062-10.771-25.389-28.571-35.111-36.162-4.4815-3.4994-8.8501-7.4338-9.708-8.743-0.8578-1.3092-2.5535-2.6403-3.7682-2.958-1.6576-0.43349-1.9231-0.2922-1.0644 0.56653 1.3666 1.3666 1.5445 4.1096 0.2132 3.2868-0.512-0.31644-1.2136-0.11799-1.559 0.44098-0.3455 0.55897-1.5567 1.0163-2.6916 1.0163-1.67 0-1.8385-0.27099-0.8838-1.4213 0.9722-1.1715 0.798-1.3215-0.9914-0.85359-1.8853 0.49302-2.0761 0.26878-1.45-1.7039 0.5061-1.5947 0.378-2.0597-0.43-1.5603-0.633 0.39123-1.7948 0.17694-2.5818-0.4762-1.632-1.3544-19.959 0.0642-33.982 2.6304-19.876 3.6373-45.851 15.002-62 27.128-17.854 13.405-38.713 35.556-49.977 53.072-9.4613 14.713-18.151 35.375-22.579 53.686-4.2714 17.663-5.0865 63.203-1.4967 83.613 2.0124 11.441 9.5817 34.093 15.111 45.22 11.479 23.101 34.213 50.436 54.359 65.359 4.1703 3.0892 8.6645 6.7277 9.9872 8.0857 2.2106 2.2697 2.9575 2.4296 9.25 1.9793 5.2533-0.37587 6.8452-0.18252 6.8452 0.8314 0 1.2339-2.1487 1.8554-9.5 2.7479-1.65 0.20032 0.4609 0.43165 4.691 0.51406 4.23 0.0824 7.9271-0.23224 8.2157-0.69922zm-3.1078-7.0131c-7.2732-4.7279-26.862-23.417-35.78-34.138-18.719-22.502-32.328-51.868-37.534-80.992-3.3939-18.987-2.9096-56.248 0.96212-74.027 6.0734-27.889 18.882-54.689 35.835-74.983 18.14-21.714 38.408-38.547 58.671-48.726 16.987-8.5336 44.067-16.039 59.755-16.561 6.064-0.20179 6.586-0.0211 12.807 4.4342 14.486 10.375 32.893 29.964 43.557 46.355 22.491 34.571 31.845 72.97 28.683 117.75-2.3308 33.012-13.838 65.029-33.127 92.169-11.252 15.832-33.069 36.596-49.337 46.955-20.311 12.934-47.985 22.564-72.291 25.156-5.7846 0.61676-6.2226 0.49503-12.201-3.3913zm22.493-1.6682c22.76-4.519 54.482-18.117 69.904-29.965 9.8405-7.5602 31.576-29.125 36.304-36.018 14.107-20.569 23.898-41.442 30.596-65.229 5.7771-20.518 5.399-68.115-0.713-89.757-8.2087-29.066-15.411-44.371-29.988-63.727-7.4362-9.874-29.397-31.962-36.316-36.526-5.2957-3.4935-9.2555-4.0306-16.886-2.2904-2.306 0.52593-7.9206 1.6677-12.477 2.5373-29.031 5.541-55.883 20.31-80.234 44.13-25.51 24.954-33.935 37.881-44.52 68.308-6.989 20.091-9.3274 33.634-9.5945 55.569-0.3686 30.264 2.7456 49.36 11.688 71.669 7.9535 19.842 13.223 29.151 24.373 43.057 12.258 15.288 34.755 36.127 42.168 39.061 2.5544 1.011 7.8885 0.73348 15.696-0.81672zm-39.904-0.3608c-2.5366-2.5349-9.6396-9.2757-15.784-14.98-17.611-16.347-29.877-32.732-39.937-53.35-11.101-22.749-16.055-41.958-17.031-66.029-1.7912-44.185 2.0798-67.987 15.816-97.25 26.684-56.847 82.566-97.15 141.66-102.17 7.3314-0.62231 8.9601 0.023 7.7853 3.0845-0.9203 2.3981-5.4451 3.2399-6.5738 1.2229-1.1567-2.0669-2.8192-2.1317-2.8192-0.10995 0 2.4005-2.9238 2.9469-4.5162 0.84405-1.2816-1.6925-1.4233-1.7081-1.452-0.16061-0.042 2.2626-4.0318 4.5588-4.0318 2.3204 0-0.84435-0.45-1.5352-1-1.5352s-1 0.675-1 1.5c0 1.8116-2.6282 2.0084-3.3377 0.25-0.3185-0.78935-0.5335-0.64452-0.5833 0.39301-0.098 2.0403-3.1614 3.3417-4.1397 1.7587-0.4726-0.76464-0.9536-0.43209-1.3973 0.96613-0.8164 2.572-2.5154 2.8208-2.6097 0.38213-0.054-1.3933-0.2888-1.2914-1.1528 0.5-1.1686 2.4231-2.7795 3.0186-2.7795 1.0275 0-0.67237-0.7545-0.14523-1.6768 1.1714-1.59 2.27-1.7157 2.2945-2.4297 0.4725-0.7205-1.8387-0.7559-1.8408-0.8232-0.049-0.058 1.5493-0.3292 1.6576-1.5703 0.62756-1.2322-1.0226-1.5-0.94468-1.5 0.43657 0 0.92481-0.3697 1.453-0.8216 1.1737-0.4519-0.27928-1.61 0.41299-2.5736 1.5384-1.0551 1.2323-2.5044 1.8494-3.6436 1.5515-1.2306-0.32181-2.0901 0.13059-2.4595 1.2946-0.3124 0.98412-1.4886 2.0301-2.6138 2.3243-1.4866 0.38875-1.8962 0.1449-1.4983-0.89203 0.3012-0.78486 0.1118-1.427-0.421-1.427-0.5327 0-0.9686 0.70329-0.9686 1.5629 0 0.88958-0.7539 1.4862-1.75 1.3848-3.057-0.31096-3.5272 0.0134-2.25 1.5523 1.0419 1.2554 0.8891 1.5-0.9366 1.5-1.3975 0-1.9244 0.41594-1.466 1.1575 0.4859 0.78629 0.052 0.98391-1.3548 0.61618-1.5072-0.39416-2.2157 0.0156-2.6057 1.5069-0.4386 1.6772-0.8026 1.8268-2.0091 0.82545-1.2187-1.0115-1.5299-0.82385-1.8006 1.0856-0.2077 1.4656-1.1114 2.4202-2.4752 2.6146-1.1815 0.16841-2.3769 1.1809-2.6564 2.25-0.291 1.1125-1.3687 1.9438-2.5202 1.9438-3.1714 0-5.094 1.0486-4.5451 2.479 0.6492 1.6917-3.7655 4.9202-4.6877 3.4281-0.6567-1.0625-15.943 15.526-15.943 17.302 0 0.50936-1.0125 0.62424-2.25 0.25529-2.1488-0.64065-2.1645-0.60559-0.3485 0.77997 1.4387 1.0977 1.594 1.6408 0.6382 2.2315-0.7341 0.45367-1.629 0.20342-2.1362-0.59735-0.6479-1.0229-0.8768-0.79814-0.8882 0.87188-0.01 1.2375-0.3793 2.25-0.8242 2.25-0.4448 0-1.6823 0.68152-2.75 1.5145-1.0902 0.85064-1.3384 1.3986-0.5661 1.25 2.5434-0.48923 2.3081 2.195-0.2964 3.3817-1.4182 0.64618-2.5786 2.0026-2.5786 3.0144 0 1.1542-0.7231 1.8395-1.941 1.8395-2.3131 0-3.6005 1.631-1.8152 2.2998 0.8844 0.33136 0.6931 0.90366-0.6466 1.9337-1.0465 0.80468-1.5824 1.9813-1.1909 2.6148 0.4207 0.68082 0.074 1.1517-0.8473 1.1517-0.8574 0-1.559 0.66088-1.559 1.4686 0 0.89459-0.5863 1.2436-1.5 0.89301-0.9498-0.36449-1.5 0.0138-1.5 1.0314 0 0.88385 0.4604 1.607 1.0231 1.607 0.5626 0 0.2859 1.125-0.615 2.5-0.901 1.375-2.2424 2.5-2.9809 2.5-2.3322 0-6.7297 8.6587-5.9583 11.732 0.56515 2.2517 0.12591 3.1637-2.6456 5.493-1.8278 1.5362-2.5358 2.5158-1.5733 2.177 2.587-0.91059 2.2293 2.1489-0.47251 4.0413-1.2224 0.85618-1.6724 1.5567-1 1.5567 0.67238 0 1.2225 0.45 1.2225 1s-0.675 1-1.5 1c-1.7747 0-2.0157 1.6614-0.32295 2.2257 0.76162 0.25388 0.85918 0.90094 0.27643 1.8333-0.49534 0.79254-0.92532 1.891-0.9555 2.441-0.21233 3.8687-1.8835 7.3842-3.8051 8.0043-1.8788 0.60633-1.9422 0.77463-0.44288 1.175 0.9625 0.25703 1.7499 0.54683 1.7498 0.644-3e-3 3.5014-3.5527 16.564-5.0009 18.405-2.3702 3.0132-2.5868 4.7111-0.49891 3.9099 2.001-0.76784 1.8936 0.81302-0.5 7.3616-2.5809 7.0612-2.7875 24.199-0.37359 31 3.3728 9.502 3.4648 10.164 1.3181 9.4824-1.3614-0.43209-1.9445-0.14715-1.9445 0.95024 0 0.86207 0.45 1.5674 1 1.5674s1 0.85186 1 1.893c0 1.0412 0.675 2.152 1.5 2.4686 0.825 0.31658 1.5 1.2647 1.5 2.107 0 0.84226-0.675 1.5314-1.5 1.5314-2.2332 0-1.8148 3.1049 0.5 3.7102 1.1 0.28766 2 1.1314 2 1.875 0 0.79092-0.62249 1.1131-1.5 0.77638-0.825-0.31659-1.4931-0.18996-1.4847 0.28138 0.0265 1.4839 1.4124 2.9758 3.4847 3.7514 1.8822 0.70438 1.8969 0.82441 0.25 2.0373-2.2835 1.6817-2.2072 2.2155 0.41445 2.9011 1.7496 0.45754 1.9364 0.84082 0.97448 1.9998-0.94353 1.1369-0.85054 1.5641 0.449 2.0628 1.0463 0.4015 1.4511 1.3474 1.1194 2.6158-0.28576 1.0928-0.11182 2.2388 0.38655 2.5469 1.4032 0.86723 1.0692 2.654-0.34388 1.8398-0.6875-0.39615-0.17936 0.45568 1.1292 1.893 1.4718 1.6166 2.1835 3.3614 1.8662 4.575-0.36626 1.4006 0.0974 2.1295 1.6208 2.548 1.7057 0.46861 1.8505 0.76867 0.72165 1.4955-1.1945 0.76913-1.156 1.1655 0.25 2.5715 2.1045 2.1045 2.2423 4.2457 0.16218 2.5193-1.1619-0.96427-1.5-0.97077-1.5-0.0288 0 0.66884 0.92545 1.4581 2.0566 1.7539 1.2202 0.31909 1.843 1.0944 1.5314 1.9064-0.30056 0.78326 0.11636 1.3686 0.97483 1.3686 2.0649 0 3.0443 3.002 1.333 4.0856-1.1227 0.71091-1.0596 0.88676 0.3229 0.89908 1.1256 0.01 1.517 0.54082 1.1343 1.5381-0.36751 0.9577 0.8187 2.8461 3.1967 5.0888 3.001 2.8303 3.4891 3.7508 2.3658 4.4619-1.098 0.69499-0.9482 0.89933 0.6679 0.91121 2.9062 0.0214 3.4946 0.91017 2.1079 3.184-0.9787 1.6047-0.8791 2.1848 0.5588 3.2524 0.9625 0.71463 1.75 1.6136 1.75 1.9977 0 1.6724 6.2522 8.2621 9.4966 10.009 2.0894 1.1252 3.8096 2.9435 4.1796 4.4179 1.1572 4.6105 11.804 17.876 14.561 18.143 2.7345 0.26409 9.7629 4.2061 9.7629 5.4756 0 1.6614-1.034 1.979-2.5571 0.78554-0.5265-0.4125-0.3902-0.0898 0.3028 0.7171 0.693 0.80691 2.4962 1.5578 4.0071 1.6688 1.511 0.11091 3.0847 0.23822 3.4972 0.2829 0.4125 0.0447 0.75 0.78656 0.75 1.6486 0 1.0894-0.5843 1.3819-1.9158 0.95932-1.0537-0.33444-2.2053-0.13976-2.559 0.43261-1.2297 1.9896-4.0523 0.73126-8.6371-3.8505zm-58.888-181.55c0-0.24254-0.45-0.7191-1-1.059s-1-0.14148-1 0.44098 0.45 1.059 1 1.059 1-0.19844 1-0.44098zm51.014 167.96c-1.8578-1.9168-3.1543-3.7085-2.8812-3.9816 0.2732-0.27315 2.2463 1.2951 4.3846 3.485 2.1384 2.1899 3.435 3.9816 2.8812 3.9816-0.5537 0-2.5268-1.5683-4.3846-3.485zm-17.472-20.446c-0.6831-1.1052 0.8944-2.2986 1.8178-1.3752 0.9508 0.95079 0.7736 2.3062-0.3015 2.3062-0.5175 0-1.1998-0.41891-1.5163-0.9309zm-3.9043-5.5691c-0.3506-0.91371 0-1.5 0.893-1.5 0.8077 0 1.4686 0.675 1.4686 1.5s-0.4018 1.5-0.893 1.5-1.152-0.675-1.4686-1.5zm-2.0554-3.3658c-0.4308-0.697-0.5132-1.5373-0.1831-1.8674 0.8949-0.89496 1.8707 0.4213 1.3874 1.8714-0.3388 1.0162-0.5743 1.0154-1.2043-4e-3zm-29.976-100.72c-0.92048-2.3987-0.69801-7.73 0.39301-9.4182 0.68311-1.057 0.9739 0.34568 0.98469 4.75 0.0156 6.3852-0.30367 7.4671-1.3777 4.6682zm56.393 148.11c0-0.25911-4.2142-3.6248-9.365-7.4793-38.795-29.032-64.041-67.451-73.851-112.39-2.0139-9.2246-2.2207-12.938-2.237-40.164-0.0201-33.502 0.60905-38.693 7.1507-59 6.4718-20.09 16.431-38.87 28.637-54 7.6649-9.5011 31.684-33.212 40.165-39.651 22.089-16.768 51.901-27.609 83-30.182 2.2-0.18203 0.4-0.4048-4-0.49505-20.364-0.41767-46.91 7.2911-69.357 20.141-42.061 24.078-73.029 64.447-86.445 112.69l-3.1982 11.5v75l3.2697 11.774c6.8902 24.81 17.223 45.475 32.615 65.226 6.8342 8.7698 24.901 26.681 34.104 33.811 4.3937 3.4039 9.5687 7.8164 11.5 9.8056s4.5239 3.6767 5.7614 3.75 2.25-0.0787 2.25-0.33783zm-8.4892-1.5114c-0.334-0.54041-5.198-4.12-10.809-7.9547-33.189-22.682-57.649-54.959-71.084-93.797-5.8409-16.886-7.7609-28.927-8.3569-52.408-1.0027-39.503 3.0885-60.39 17.699-90.358 18.104-37.134 52.249-70.768 87.62-86.31 20.916-9.1906 34.605-12.333 64.169-14.73 4.5375-0.36789 8.25-1.0065 8.25-1.4191 0-2.0713-24.042-7.401-41.25-9.1442-24.587-2.4908-54.327 3.1872-79.25 15.13-35.256 16.895-70.187 53.005-86.066 88.972-10.113 22.906-14.312 42.603-15.155 71.096-1.775 59.963 15.095 102.22 56.855 142.4 13.089 12.596 21.745 19.077 33.829 25.328 14.774 7.6426 45.958 17.087 43.549 13.189zm-16.074-6.1772c-35.804-21.47-65.759-59.143-78.988-99.34-5.5889-16.981-7.2883-26.374-8.504-47-2.211-37.513 3.4122-67.32 18.296-96.979 17.541-34.954 51.99-69.121 85.26-84.558 19.804-9.1894 35.531-12.624 61-13.32 19.453-0.53206 18.063 0.0401-5.5 2.2644-37.726 3.5613-72.18 21.492-102.64 53.414-30.001 31.445-46.336 69.247-49.368 114.25-2.8703 42.588 6.6668 81.906 27.757 114.43 11.458 17.67 30.58 37.474 50.427 52.223 5.9514 4.4229 10.821 8.2072 10.821 8.4095 0 0.9948-2.2207 0.0115-8.5631-3.7918zm179.06-34.84c0.9955-1.1 1.585-2 1.31-2s-1.3145 0.9-2.31 2-1.585 2-1.31 2 1.3145-0.9 2.31-2zm-63-301.01c-3.0026-1.383-4.8727-1.6369-7.5-1.0181l-3.5 0.82434 4.5 0.17264c2.475 0.095 5.4 0.55939 6.5 1.0321 3.9249 1.6866 3.9249 0.79686 0-1.011zm287.17-135.66c-1.2847-1.2847-0.6702-3.2719 0.8333-2.695 0.825 0.31659 1.5 1.2025 1.5 1.9686 0 1.4702-1.2121 1.8476-2.3333 0.72634zm-12.084-10.199c-0.4308-0.697-0.5132-1.5373-0.1831-1.8674 0.8949-0.89496 1.8707 0.4213 1.3874 1.8714-0.3388 1.0162-0.5743 1.0154-1.2043-4e-3zm-34.323-21.619c-1.5876-1.804-0.4814-2.471 2.9957-1.8063 3.0579 0.58454 3.5676 1.7616 1.1625 2.6845-2.2026 0.84523-2.7418 0.73135-4.1582-0.87818zm-6.8011-4.5814c-0.3625-0.58659-0.5016-1.2219-0.309-1.4117 0.6882-0.67849 5.8501 0.72869 5.8501 1.5948 0 1.2558-4.7488 1.0988-5.5411-0.18311zm-8.2197-4.3736c-2.3434-1.1841-5.0273-2.9194-5.9643-3.8564-1.5554-1.5554-1.5607-1.7035-0.061-1.7035 0.9036 0 2.35 0.70714 3.2143 1.5714 0.8643 0.86428 1.5715 1.2592 1.5715 0.87755s0.5625-0.25082 1.25 0.29069c0.6875 0.5415 2.5194 1.2882 4.071 1.6593 1.5516 0.37113 2.6484 1.1926 2.4375 1.8254-0.5977 1.7932-1.9225 1.6582-6.5193-0.66451zm-10.224-5.0956c0.027-1.7215 1.8555-3.9268 2.6208-3.1615 0.4097 0.40967-0.016 1.5056-0.9456 2.4353-0.9298 0.92976-1.6836 1.2565-1.6752 0.72619zm-2.0153-2.3463c0-0.55 0.45-1.2781 1-1.618s1-0.16803 1 0.38197-0.45 1.2781-1 1.618-1 0.16803-1-0.38197zm-3-1c0-0.55 0.45-1.2781 1-1.618s1-0.16803 1 0.38197-0.45 1.2781-1 1.618-1 0.16803-1-0.38197zm-3-0.87314c0-0.55 0.675-1.5602 1.5-2.2449 0.8368-0.69443 1.5-0.80272 1.5-0.24489 0 0.55-0.675 1.5602-1.5 2.2449-0.8367 0.69443-1.5 0.80272-1.5 0.24489zm-5.5573-2.6631c-1.0667-0.78003-1.6757-1.6821-1.3533-2.0045 0.9086-0.90861 6.9803 1.5009 6.3504 2.5202-0.8101 1.3108-2.7769 1.1078-4.9971-0.51565zm-31.943-8.8794c-8.1001-4.2524-10-5.6727-10-7.476 0-1.2245 0.45-2.1138 1-1.9763s0.9295 0.8605 0.8433 1.6067c-0.1145 0.99162 0.1412 1.0589 0.95 0.25 2.0169-2.0169 3.9735-1.3056 3.341 1.2145-0.5184 2.0653 0.2963 2.7894 7.3915 6.57 7.4048 3.9454 9.1093 5.1451 7.2242 5.0849-0.4125-0.0132-5.25-2.3864-10.75-5.2737zm-36.463-13.771c-2.4548-1.1136-4.6918-2.2531-4.9711-2.5324-0.755-0.75498 2.1559-2.3661 4.3068-2.3837 1.631-0.0133 1.6955 0.20045 0.5 1.6581-1.2119 1.4776-1.1385 1.6089 0.6275 1.1219 1.1-0.30333 2.6188-0.71887 3.3751-0.92341 0.8997-0.24336 1.4296 0.57863 1.533 2.3781 0.1875 3.2635 0.2916 3.2503-5.3713 0.68146zm-7.4941-4.8624c-0.7395-1.1966 1.1416-2.3822 2.4736-1.559 1.1184 0.69118 0.3842 2.4899-1.0163 2.4899-0.4851 0-1.1408-0.41891-1.4573-0.9309zm-5.5427-2.0691c0-0.55 0.675-1 1.5-1s1.5 0.45 1.5 1-0.675 1-1.5 1-1.5-0.45-1.5-1zm-5.4573-0.9309c-0.3164-0.512-0.118-1.2136 0.441-1.559 1.1934-0.73755 3.0163 0.19857 3.0163 1.5489 0 1.2168-2.7066 1.2247-3.4573 0.0101zm-62.314-16.256c0.4982-1.4948 2.771-2.3179 2.771-1.0035 0 0.53699-0.7126 1.2498-1.5835 1.584-0.974 0.37373-1.4311 0.15024-1.1875-0.58051zm-14.76-4.8634c-0.9502-1.5375 0.3513-2.5295 1.6348-1.246 0.7182 0.71818 0.7354 1.2775 0.052 1.6996-0.5599 0.34605-1.3192 0.1419-1.6873-0.45366zm-5.469-1.9498c0-0.55 0.4235-1 0.941-1s1.2191 0.45 1.559 1-0.084 1-0.941 1c-0.8574 0-1.559-0.45-1.559-1zm-8-0.83333c0-1.409 1.1264-2.0554 2.5978-1.4908 2.0869 0.80084 1.6951 2.3241-0.5978 2.3241-1.1 0-2-0.375-2-0.83333zm-6.5411-1.2332c-0.9203-1.4892 0.1467-2.2988 2.0614-1.5641 0.8835 0.33906 1.3264 1.0697 0.9841 1.6235-0.8106 1.3115-2.2151 1.2841-3.0455-0.05947zm-8.4589-2.4335c0.6847-0.825 1.8648-1.5 2.6225-1.5 0.7576 0 1.3775 0.675 1.3775 1.5 0 0.95201-0.958 1.5-2.6224 1.5-2.2177 0-2.4303-0.23152-1.3776-1.5zm-11-0.32965c0-1.1524 2.4226-2.1703 5.1651-2.1703 1.1535 0 1.8277 0.52967 1.5912 1.25-0.4823 1.4693-6.7563 2.3239-6.7563 0.92035zm-13.262-0.86203c-3.3038-0.86178-0.6328-2.3083 4.2622-2.3083 5.232 0 7.4172 1.3868 3.7388 2.3727-2.4696 0.66189-5.3043 0.63909-8.001-0.06434z"/>
</svg>
